#!OML:ASF G:\JayActor3\Patient Classification 1\Patient 1\Session 6\male.ASF
:FULLY-SPECIFIED
:DEGREES
1916
root -8.17548 15.4895 0.139816 374.571 -41.7295 -358.235
lowerback 33.3772 -0.64766 1.82967
upperback 14.4183 -0.932185 1.52853
thorax -1.26402 -0.728573 0.910276
lowerneck 5.91468 -11.3162 -4.66596
upperneck -23.7175 -13.2396 18.2262
head -6.46923 -8.06942 7.58488
rclavicle -4.41302e-014 1.63003e-014
rhumerus -15.4819 9.47 -75.0933
rradius 58.6849
rwrist -4.7759
rhand -29.9702 -5.62944
rfingers 7.12502
rthumb -3.28865 -35.5838
lclavicle -4.41302e-014 1.63003e-014
lhumerus -9.94859 -11.0213 66.4044
lradius 59.5519
lwrist 29.0556
lhand -26.7055 -1.19519
lfingers 7.12502
lthumb -0.135614 28.7845
rfemur -49.5595 -4.39556 15.9727
rtibia 72.4877
rfoot -25.1265 -22.4049
rtoes 1.29578
lfemur -51.1796 20.4679 -31.843
ltibia 55.3282
lfoot -19.1215 9.63075
ltoes -2.15824
1917
root -8.17555 15.4979 0.205524 374.69 -42.0142 -358.384
lowerback 32.8553 -0.630553 1.78867
upperback 14.7067 -0.943332 1.51651
thorax -1.07216 -0.734393 0.967349
lowerneck 5.89114 -11.3736 -4.6552
upperneck -23.7139 -13.3095 18.3001
head -6.44969 -8.11338 7.60507
rclavicle 1.66979e-014 -4.55217e-014
rhumerus -15.4758 9.48215 -75.0798
rradius 58.8701
rwrist -4.85285
rhand -29.9898 -5.63384
rfingers 7.12502
rthumb -3.30765 -35.5879
lclavicle 1.66979e-014 -4.55217e-014
lhumerus -9.48582 -10.9553 66.1578
lradius 59.7446
lwrist 29.1556
lhand -26.9216 -0.640209
lfingers 7.12502
lthumb -0.344329 29.3393
rfemur -50.1598 -4.73424 16.2873
rtibia 73.0779
rfoot -24.5881 -22.8768
rtoes 2.59606
lfemur -51.0033 20.542 -31.7925
ltibia 55.4325
lfoot -19.4272 9.67914
ltoes -1.69638
1918
root -8.17663 15.505 0.269786 374.793 -42.3106 -358.51
lowerback 32.7747 -0.62154 1.75495
upperback 14.7088 -0.948783 1.5189
thorax -1.03536 -0.740972 0.989551
lowerneck 5.87895 -11.4266 -4.62246
upperneck -23.7372 -13.3703 18.3659
head -6.4445 -8.15517 7.62278
rclavicle 5.32743e-014 7.55382e-015
rhumerus -15.4884 9.48299 -75.0765
rradius 59.0436
rwrist -4.94145
rhand -30.0126 -5.64058
rfingers 7.12502
rthumb -3.32959 -35.5943
lclavicle 5.32743e-014 7.55382e-015
lhumerus -9.01573 -10.8683 65.9101
lradius 59.9044
lwrist 29.2808
lhand -27.1555 -0.223971
lfingers 7.12502
lthumb -0.570257 29.755
rfemur -50.7907 -5.1112 16.6317
rtibia 73.649
rfoot -24.1252 -23.2811
rtoes 3.77937
lfemur -50.8467 20.62 -31.7678
ltibia 55.5477
lfoot -19.6468 9.82764
ltoes -1.70497
1919
root -8.17893 15.511 0.33251 374.886 -42.6207 -358.618
lowerback 32.6949 -0.600899 1.69721
upperback 14.709 -0.946314 1.52195
thorax -1.0011 -0.744864 1.02378
lowerneck 5.87996 -11.4731 -4.57874
upperneck -23.7832 -13.4206 18.423
head -6.45195 -8.19295 7.63931
rclavicle -1.59028e-015 -4.29375e-014
rhumerus -15.5178 9.47561 -75.0764
rradius 59.2026
rwrist -5.03792
rhand -30.0129 -5.65479
rfingers 7.12502
rthumb -3.32989 -35.6085
lclavicle -1.59028e-015 -4.29375e-014
lhumerus -8.53864 -10.759 65.6714
lradius 60.0108
lwrist 29.4123
lhand -27.3393 -0.099471
lfingers 7.12502
lthumb -0.7478 29.879
rfemur -51.4486 -5.50168 16.9972
rtibia 74.1819
rfoot -23.7185 -23.5053
rtoes 4.74465
lfemur -50.7106 20.7053 -31.7644
ltibia 55.6751
lfoot -19.7965 10.0485
ltoes -2.04742
1920
root -8.1828 15.5155 0.393416 374.961 -42.9366 -358.701
lowerback 32.6243 -0.570443 1.61452
upperback 14.7062 -0.937859 1.52842
thorax -0.97407 -0.747171 1.07446
lowerneck 5.88962 -11.5138 -4.53636
upperneck -23.8386 -13.463 18.4754
head -6.46529 -8.22672 7.65609
rclavicle -1.90833e-014 -4.65156e-014
rhumerus -15.5623 9.45679 -75.0776
rradius 59.3485
rwrist -5.12755
rhand -30.0165 -5.68336
rfingers 7.12502
rthumb -3.33342 -35.637
lclavicle -1.90833e-014 -4.65156e-014
lhumerus -8.05526 -10.6301 65.4474
lradius 60.0987
lwrist 29.5446
lhand -27.5178 0.031475
lfingers 7.12502
lthumb -0.920156 30.0092
rfemur -52.1212 -5.88356 17.3649
rtibia 74.6519
rfoot -23.3343 -23.3895
rtoes 5.30978
lfemur -50.5841 20.7827 -31.7769
ltibia 55.8136
lfoot -19.8845 10.343
ltoes -2.69764
